<?xml version="1.0" standalone="no"?>
<!DOCTYPE svg PUBLIC "-//W3C//DTD SVG 20010904//EN"
 "http://www.w3.org/TR/2001/REC-SVG-20010904/DTD/svg10.dtd">
<svg version="1.0" xmlns="http://www.w3.org/2000/svg"
 width="1380.000000pt" height="1380.000000pt" viewBox="0 0 1380.000000 1380.000000"
 preserveAspectRatio="xMidYMid meet">
<metadata>
Created by potrace 1.11, written by Peter Selinger 2001-2013
</metadata>
<g transform="translate(0.000000,1380.000000) scale(0.100000,-0.100000)"
fill="#000000" stroke="none">
<path d="M6728 10487 l-3 -182 -182 -3 -183 -2 0 -715 0 -715 181 0 181 0 -3
358 -4 357 543 3 542 2 0 180 0 180 185 0 185 0 2 188 3 187 178 0 177 0 0
170 0 170 -900 2 -900 2 -2 -182z"/>
<path d="M7455 9213 l-360 -3 3 -165 3 -165 172 2 172 2 -167 3 -168 3 0 155
0 155 345 0 345 0 2 -167 3 -168 178 -3 177 -2 0 -99 c0 -54 3 -213 7 -353 l6
-256 -361 -7 -362 -7 0 -183 0 -182 -547 1 -548 1 -3 548 -2 547 -173 -2 -172
-3 3 -352 c3 -250 0 -357 -8 -372 -11 -21 -16 -22 -181 -19 l-169 3 0 -172 0
-173 175 0 175 0 -2 -182 -3 -183 -357 -3 -358 -2 -2 -178 c-2 -97 -3 -340 -3
-539 l0 -363 178 0 177 0 0 -180 0 -180 -360 0 -361 0 3 175 3 175 -542 0
-543 0 0 -175 0 -175 360 0 360 0 0 -185 0 -185 -180 0 -180 0 2 -182 3 -183
175 -3 175 -2 -3 -175 -3 -175 -169 0 c-94 0 -170 -3 -170 -7 0 -5 -2 -83 -3
-176 l-2 -167 167 0 c91 0 173 -3 182 -6 14 -5 16 -31 16 -183 l0 -176 160 3
c101 2 167 -1 180 -8 19 -10 20 -20 20 -185 l0 -175 178 -2 177 -3 3 -177 2
-178 540 0 540 0 0 -185 0 -185 540 0 540 0 0 180 0 180 545 0 545 0 2 183 3
182 178 3 177 2 0 175 c0 96 1 176 3 177 1 1 82 4 180 7 l179 6 -1 161 c-1 88
1 168 5 177 5 15 26 17 185 17 l179 0 0 360 0 360 180 0 180 0 0 365 0 365
180 0 180 0 -2 538 -3 537 -177 3 -178 2 0 360 0 360 -180 0 -180 0 0 180 0
180 -182 2 -183 3 -3 183 -2 182 -180 0 -180 0 0 180 0 180 -180 0 -180 0 0
173 0 174 -262 6 c-145 4 -306 6 -358 5 -52 -2 -257 -4 -455 -5z m355 -1619
l0 -174 -180 0 -180 0 0 175 0 175 173 2 c94 2 175 2 180 0 4 -2 7 -82 7 -178z
m-736 -910 c3 -9 6 -92 6 -185 l0 -169 -178 0 -179 0 -6 -238 c-3 -131 -3
-460 1 -731 l5 -493 361 3 361 4 3 -177 2 -178 -177 0 c-98 0 -184 -4 -191 -8
-10 -7 -12 -84 -10 -360 l3 -352 -170 0 -170 0 3 346 c2 321 1 348 -15 367
-18 19 -28 19 -370 12 l-353 -7 -2 358 -3 359 -183 3 -182 2 2 363 3 362 182
3 183 2 2 178 3 177 180 3 180 2 -3 175 -3 175 178 0 c98 0 185 5 193 10 8 5
88 10 176 10 139 0 163 -2 168 -16z m1094 -176 l2 -178 -185 0 -185 0 0 173
c0 96 3 177 7 181 4 3 86 5 182 4 l176 -3 3 -177z m366 -1818 c0 -102 -1 -260
-2 -351 l-1 -167 -356 -7 c-223 -5 -360 -4 -366 2 -5 5 -8 79 -7 174 l3 164
188 3 187 2 0 185 0 185 178 -2 177 -3 -1 -185z"/>
<path d="M6374 4700 c0 -91 2 -128 3 -82 2 45 2 119 0 165 -1 45 -3 8 -3 -83z"/>
<path d="M6704 4700 c0 -91 2 -128 3 -82 2 45 2 119 0 165 -1 45 -3 8 -3 -83z"/>
<path d="M4922 7585 l2 -180 3 172 3 173 173 2 172 3 -178 5 -177 5 2 -180z"/>
<path d="M4924 7230 c0 -96 2 -136 3 -87 2 48 2 126 0 175 -1 48 -3 8 -3 -88z"/>
<path d="M4560 6868 l0 -163 165 3 164 3 3 159 3 160 -167 0 -168 0 0 -162z
m320 2 l0 -150 -155 0 -155 0 0 150 0 150 155 0 155 0 0 -150z"/>
</g>
</svg>
